<svg xmlns="http://www.w3.org/2000/svg" xmlns:xlink="http://www.w3.org/1999/xlink" width="0" height="0" style="display:none;"><symbol viewBox="0 0 24 24" id="MyIconFont-acf"><path fill="#00ad9f" fill-rule="nonzero" d="M10 4H4c-1.11 0-2 .89-2 2v12c0 1.1.9 2 2 2h16c1.1 0 2-.9 2-2V8a2 2 0 0 0-2-2h-8z" data-foldercolor="ACF"></path><path fill="#A7FFEB" d="m16.911 8.83-1.033.035-4.717 11.966 3.168-.018s.43-1.136.654-1.687c1.309 0 2.617.017 3.926.017.223.551.654 1.688.654 1.688l3.357-.052-4.976-11.914zm.018 5.028.895 2.428c-.585.017-1.17.017-1.739.017z" data-foldericoncolor="ACF"></path></symbol><symbol viewBox="0 0 24 24" id="MyIconFont-acre"><path fill="#5C6BC0" fill-rule="nonzero" d="M10 4H4c-1.11 0-2 .89-2 2v12c0 1.097.903 2 2 2h16c1.097 0 2-.903 2-2V8a2 2 0 0 0-2-2h-8z" data-foldercolor="Acre"></path><path fill="#C5CAE9" d="M18.034 20.48 13.6 17.92V12.8l4.434-2.56 4.446 2.56v5.12zm2.771-4.115.378.072c.097 1.05-.236 1.732-.88 1.82-.626.074-1.016-.496-1.248-1.271-1.143 1.804-3.086 1.599-3.88.12-.739-1.365-.118-3.785 1.545-4.25.976-.247 1.942.048 2.31 1.13l.327-.847a.335.335 0 0 1 .326-.235l.955.002.413.074-1.459 3.085c.352.794.835 1 1.213.3m-2.518-.57c.604-1.17-.662-2.498-1.488-1.477-.587.77-.811 1.96-.41 2.871.47.664 1.197-.067 1.898-1.394" data-foldericoncolor="Acre"></path></symbol><symbol viewBox="0 0 24 24" id="MyIconFont-adapter"><path fill="#F26B00" d="M10 4H4c-1.11 0-2 .89-2 2v12c0 1.097.903 2 2 2h16c1.097 0 2-.903 2-2V8a2 2 0 0 0-2-2h-8z" data-foldercolor="Adapter"></path><g fill="#FFECB3" data-foldericoncolor="Adapter"><path d="M10.32 15.33c0 .86-.7 1.56-1.56 1.56s-1.56-.7-1.56-1.56.7-1.56 1.56-1.56c.86-.01 1.56.69 1.56 1.56"></path><path d="M13.45 22.37c-1.15 0-2.09-.94-2.09-2.09s.94-2.09 2.09-2.09h3.95a1.23 1.23 0 1 0 0-2.46H8.76c-.24 0-.43-.19-.43-.43s.19-.43.43-.43h8.64c1.15 0 2.09.94 2.09 2.09s-.94 2.09-2.09 2.09h-3.95a1.23 1.23 0 1 0 0 2.46h8.73c.24 0 .43.19.43.43s-.19.43-.43.43z"></path><path d="M20.62 21.94c0-.86.7-1.56 1.56-1.56s1.56.7 1.56 1.56-.7 1.56-1.56 1.56-1.56-.7-1.56-1.56"></path></g></symbol><symbol viewBox="0 0 24 24" id="MyIconFont-addon"><path fill="#7CB342" fill-rule="nonzero" d="M10 4H4c-1.11 0-2 .89-2 2v12c0 1.097.903 2 2 2h16c1.097 0 2-.903 2-2V8a2 2 0 0 0-2-2h-8z" data-foldercolor="Addons"></path><path fill="#dcedc8" d="M13.314 11.766h-1.122v7.855c0 .618.504 1.123 1.122 1.123h7.855V19.62h-7.855zm8.978-2.244h-6.734c-.616 0-1.122.504-1.122 1.122v6.733c0 .618.506 1.122 1.122 1.122h6.734c.617 0 1.122-.504 1.122-1.122v-6.733c0-.618-.505-1.122-1.122-1.122m-.561 5.05h-2.245v2.244h-1.122v-2.244H16.12v-1.123h2.244v-2.244h1.122v2.244h2.245z" data-foldericoncolor="Addons"></path></symbol><symbol id="MyIconFont-admin"><path fill="#04a29f" fill-rule="nonzero" d="M6.67 2.67h-4c-.73 0-1.33.6-1.33 1.33v8c0 .73.6 1.33 1.33 1.33h10.66c.73 0 1.33-.6 1.33-1.33V5.33c0-.73-.6-1.33-1.33-1.33H8z" data-foldercolor="Netlify"></path><path fill="#defffe" fill-rule="nonzero" d="m15.91 9.54-.14-.14-3.78-3.78-.14-.14-.16-.06h-.75l-.16.06-.14.14L6.87 9.4l-.14.14-.06.16v.75l.06.16.14.14 3.78 3.78.14.14.16.06h.75l.16-.06.14-.14 3.78-3.78.14-.14.06-.16V9.7l-.06-.16Zm-4.93-3.25.05-.05h.58l.05.05V8.1l-.05.05h-.58l-.05-.05zm-3.64 4.06v-.58l.05-.05h2.04l.05.05v.58l-.05.05H7.39zm2.65 1.62-.53.53h-.08l-.39-.39v-.08l.53-.53h.42l.06.06v.42Zm0-3.37-.06.06h-.42l-.53-.53v-.08l.39-.39h.08l.53.53v.42Zm1.66 5.25-.05.05h-.58l-.05-.05v-1.81l.05-.05h.58l.05.05zm.8-2.61-.05.05h-.58l-.05-.05V9.89c0-.24-.09-.42-.38-.43h-.5l-.03.03v1.75l-.05.05h-.58l-.05-.05V8.93l.05-.05h1.3c.51 0 .91.41.91.91v1.44Zm2.85-.87-.05.05h-2.04l-.05-.05v-.58l.05-.05h2.04l.05.05z" data-foldericoncolor="Netlify"></path></symbol><symbol viewBox="0 0 24 24" id="MyIconFont-adr"><path fill="#0277BD" d="M10 4H4c-1.11 0-2 .89-2 2v12c0 1.097.903 2 2 2h16c1.097 0 2-.903 2-2V8a2 2 0 0 0-2-2h-8z" data-foldercolor="ADR"></path><path fill="#B3E5FC" d="M17.058 21.644v-3.16q0-.885-.269-1.313a4.2 4.2 0 0 0-.711-.837l.9-.901q.19.174.364.371.174.198.348.42.221-.302.45-.53.23-.23.467-.45.6-.554 1.09-1.281t.522-2.545l-.996.996-.9-.885L20.85 9l2.529 2.529-.885.885-1.012-.996q-.031 2.261-.695 3.216-.664.957-1.328 1.558a6 6 0 0 0-.822.892q-.316.435-.316 1.4v3.16zm-3.035-8.74a5 5 0 0 1-.087-.695 34 34 0 0 1-.04-.79l-1.01.995-.886-.885L14.529 9l2.529 2.529-.901.885-.996-.98q0 .332.032.625.03.291.063.545zm1.36 2.782a5.6 5.6 0 0 1-.609-.775 4.8 4.8 0 0 1-.514-1.09l1.217-.3a3.35 3.35 0 0 0 .806 1.264l-.9.9Z" data-foldericoncolor="ADR"></path></symbol><symbol viewBox="0 0 24 24" id="MyIconFont-agda"><path fill="#616161" fill-rule="nonzero" d="M10 4H4c-1.11 0-2 .89-2 2v12c0 1.097.903 2 2 2h16c1.097 0 2-.903 2-2V8a2 2 0 0 0-2-2h-8z" data-foldercolor="Agda"></path><path fill="#F5F5F5" stroke="#F5F5F5" stroke-width=".8" d="m22.139 11.324-3.314 3.314c-.15.134-.344-.068-.211-.211l3.314-3.314c.14-.135.346.062.21.21zm1.446.617-1.657 1.657c-.135.149.069.345.21.211l1.658-1.657c.132-.151-.072-.345-.211-.21zm0-.828-1.657 1.657c-.136.148.062.344.21.21l1.658-1.656c.134-.15-.066-.341-.211-.211zm-5.8 0L16.13 12.77c-.136.144.061.344.21.21l1.657-1.656c.133-.145-.061-.346-.21-.211zm-.617 1.868 1.657-1.657c.132-.14-.06-.348-.211-.211l-1.657 1.657c-.133.146.063.343.21.21zm1.551 6.671c1.687 0 3.399-1.284 3.463-3.463v-1.595l1.614-1.613c.133-.15-.067-.346-.211-.211l-1.657 1.657a.15.15 0 0 0-.044.105v1.657c-.05 2.036-1.647 3.165-3.165 3.165-1.39 0-3.107-1.043-3.164-3.165v-1.657a.15.15 0 0 0-.15-.149H14.11l3.059-3.06c.132-.14-.059-.345-.211-.21l-3.314 3.314c-.09.093-.031.254.106.254h1.507v1.508c.092 2.293 1.86 3.463 3.463 3.463zm-2.758-6.197a.224.224 0 1 0 0 0zm.828 0a.224.224 0 1 0-.447 0 .224.224 0 0 0 .447 0z" data-foldericoncolor="Agda"></path></symbol><symbol viewBox="0 0 24 24" id="MyIconFont-alacritty"><path fill="#ef5350" fill-rule="nonzero" d="M10 4H4c-1.11 0-2 .89-2 2v12c0 1.097.903 2 2 2h16c1.097 0 2-.903 2-2V8a2 2 0 0 0-2-2h-8z" data-foldercolor="Alacritty"></path><path fill="#ffcdd2" d="m17.102 16.854.98 3.626.98-3.626-.98-2.375zm.154-6.614h1.652l3.656 9.074H21.03l-2.949-6.93-2.949 6.93H13.6z" data-foldericoncolor="Alacritty"></path></symbol></svg>