<svg xmlns="http://www.w3.org/2000/svg" xml:space="preserve" width="16" height="16" fill-rule="evenodd" stroke-linejoin="round" stroke-miterlimit="1.414" clip-rule="evenodd" data-big="true" viewBox="0 0 24 24"><path fill="#5C6BC0" fill-rule="nonzero" d="M10 4H4c-1.11 0-2 .89-2 2v12c0 1.097.903 2 2 2h16c1.097 0 2-.903 2-2V8a2 2 0 0 0-2-2h-8z" data-folderColor="Acre"/><path fill="#C5CAE9" d="M18.034 20.48 13.6 17.92V12.8l4.434-2.56 4.446 2.56v5.12zm2.771-4.115.378.072c.097 1.05-.236 1.732-.88 1.82-.626.074-1.016-.496-1.248-1.271-1.143 1.804-3.086 1.599-3.88.12-.739-1.365-.118-3.785 1.545-4.25.976-.247 1.942.048 2.31 1.13l.327-.847a.335.335 0 0 1 .326-.235l.955.002.413.074-1.459 3.085c.352.794.835 1 1.213.3m-2.518-.57c.604-1.17-.662-2.498-1.488-1.477-.587.77-.811 1.96-.41 2.871.47.664 1.197-.067 1.898-1.394" data-folderIconColor="Acre"/></svg>