<svg xmlns="http://www.w3.org/2000/svg" xml:space="preserve" width="16" height="16" data-big="true" viewBox="0 0 24 24"><path fill="#F26B00" d="M10 4H4c-1.11 0-2 .89-2 2v12c0 1.097.903 2 2 2h16c1.097 0 2-.903 2-2V8a2 2 0 0 0-2-2h-8z" data-folderColor="Adapter"/><g fill="#FFECB3" data-folderIconColor="Adapter"><path d="M10.32 15.33c0 .86-.7 1.56-1.56 1.56s-1.56-.7-1.56-1.56.7-1.56 1.56-1.56c.86-.01 1.56.69 1.56 1.56"/><path d="M13.45 22.37c-1.15 0-2.09-.94-2.09-2.09s.94-2.09 2.09-2.09h3.95a1.23 1.23 0 1 0 0-2.46H8.76c-.24 0-.43-.19-.43-.43s.19-.43.43-.43h8.64c1.15 0 2.09.94 2.09 2.09s-.94 2.09-2.09 2.09h-3.95a1.23 1.23 0 1 0 0 2.46h8.73c.24 0 .43.19.43.43s-.19.43-.43.43z"/><path d="M20.62 21.94c0-.86.7-1.56 1.56-1.56s1.56.7 1.56 1.56-.7 1.56-1.56 1.56-1.56-.7-1.56-1.56"/></g></svg>