<svg xmlns="http://www.w3.org/2000/svg" xml:space="preserve" width="16" height="16" fill-rule="evenodd" stroke-linejoin="round" stroke-miterlimit="1.414" clip-rule="evenodd" data-big="true"><path fill="#04a29f" fill-rule="nonzero" d="M6.67 2.67h-4c-.73 0-1.33.6-1.33 1.33v8c0 .73.6 1.33 1.33 1.33h10.66c.73 0 1.33-.6 1.33-1.33V5.33c0-.73-.6-1.33-1.33-1.33H8z" data-folderColor="Netlify"/><path fill="#defffe" fill-rule="nonzero" d="m15.91 9.54-.14-.14-3.78-3.78-.14-.14-.16-.06h-.75l-.16.06-.14.14L6.87 9.4l-.14.14-.06.16v.75l.06.16.14.14 3.78 3.78.14.14.16.06h.75l.16-.06.14-.14 3.78-3.78.14-.14.06-.16V9.7l-.06-.16Zm-4.93-3.25.05-.05h.58l.05.05V8.1l-.05.05h-.58l-.05-.05zm-3.64 4.06v-.58l.05-.05h2.04l.05.05v.58l-.05.05H7.39zm2.65 1.62-.53.53h-.08l-.39-.39v-.08l.53-.53h.42l.06.06v.42Zm0-3.37-.06.06h-.42l-.53-.53v-.08l.39-.39h.08l.53.53v.42Zm1.66 5.25-.05.05h-.58l-.05-.05v-1.81l.05-.05h.58l.05.05zm.8-2.61-.05.05h-.58l-.05-.05V9.89c0-.24-.09-.42-.38-.43h-.5l-.03.03v1.75l-.05.05h-.58l-.05-.05V8.93l.05-.05h1.3c.51 0 .91.41.91.91v1.44Zm2.85-.87-.05.05h-2.04l-.05-.05v-.58l.05-.05h2.04l.05.05z" data-folderIconColor="Netlify"/></svg>