<svg xmlns="http://www.w3.org/2000/svg" width="16" height="16" fill="none" data-big="true" viewBox="0 0 24 24"><path fill="#0277BD" d="M10 4H4c-1.11 0-2 .89-2 2v12c0 1.097.903 2 2 2h16c1.097 0 2-.903 2-2V8a2 2 0 0 0-2-2h-8z" data-folderColor="ADR"/><path fill="#B3E5FC" d="M17.058 21.644v-3.16q0-.885-.269-1.313a4.2 4.2 0 0 0-.711-.837l.9-.901q.19.174.364.371.174.198.348.42.221-.302.45-.53.23-.23.467-.45.6-.554 1.09-1.281t.522-2.545l-.996.996-.9-.885L20.85 9l2.529 2.529-.885.885-1.012-.996q-.031 2.261-.695 3.216-.664.957-1.328 1.558a6 6 0 0 0-.822.892q-.316.435-.316 1.4v3.16zm-3.035-8.74a5 5 0 0 1-.087-.695 34 34 0 0 1-.04-.79l-1.01.995-.886-.885L14.529 9l2.529 2.529-.901.885-.996-.98q0 .332.032.625.03.291.063.545zm1.36 2.782a5.6 5.6 0 0 1-.609-.775 4.8 4.8 0 0 1-.514-1.09l1.217-.3a3.35 3.35 0 0 0 .806 1.264l-.9.9Z" data-folderIconColor="ADR"/></svg>