<svg xmlns="http://www.w3.org/2000/svg" xml:space="preserve" width="16" height="16" fill-rule="evenodd" stroke-linejoin="round" stroke-miterlimit="1.414" clip-rule="evenodd" data-big="true" viewBox="0 0 24 24"><path fill="#616161" fill-rule="nonzero" d="M10 4H4c-1.11 0-2 .89-2 2v12c0 1.097.903 2 2 2h16c1.097 0 2-.903 2-2V8a2 2 0 0 0-2-2h-8z" data-folderColor="Agda"/><path fill="#F5F5F5" stroke="#F5F5F5" stroke-width=".8" d="m22.139 11.324-3.314 3.314c-.15.134-.344-.068-.211-.211l3.314-3.314c.14-.135.346.062.21.21zm1.446.617-1.657 1.657c-.135.149.069.345.21.211l1.658-1.657c.132-.151-.072-.345-.211-.21zm0-.828-1.657 1.657c-.136.148.062.344.21.21l1.658-1.656c.134-.15-.066-.341-.211-.211zm-5.8 0L16.13 12.77c-.136.144.061.344.21.21l1.657-1.656c.133-.145-.061-.346-.21-.211zm-.617 1.868 1.657-1.657c.132-.14-.06-.348-.211-.211l-1.657 1.657c-.133.146.063.343.21.21zm1.551 6.671c1.687 0 3.399-1.284 3.463-3.463v-1.595l1.614-1.613c.133-.15-.067-.346-.211-.211l-1.657 1.657a.15.15 0 0 0-.044.105v1.657c-.05 2.036-1.647 3.165-3.165 3.165-1.39 0-3.107-1.043-3.164-3.165v-1.657a.15.15 0 0 0-.15-.149H14.11l3.059-3.06c.132-.14-.059-.345-.211-.21l-3.314 3.314c-.09.093-.031.254.106.254h1.507v1.508c.092 2.293 1.86 3.463 3.463 3.463zm-2.758-6.197a.224.224 0 1 0 0 0zm.828 0a.224.224 0 1 0-.447 0 .224.224 0 0 0 .447 0z" data-folderIconColor="Agda"/></svg>